<svg width="49" height="48" viewBox="0 0 49 48" fill="none" xmlns="http://www.w3.org/2000/svg">
<g clip-path="url(#clip0_1_292)">
<path d="M24.09 42H10.5C9.43913 42 8.42172 41.5786 7.67157 40.8284C6.92143 40.0783 6.5 39.0609 6.5 38V14C6.5 12.9391 6.92143 11.9217 7.67157 11.1716C8.42172 10.4214 9.43913 10 10.5 10H34.5C35.5609 10 36.5783 10.4214 37.3284 11.1716C38.0786 11.9217 38.5 12.9391 38.5 14V22" stroke="#64177C" stroke-width="3" stroke-linecap="round" stroke-linejoin="round"/>
<path d="M36.5 28V36H44.5" stroke="#64177C" stroke-width="3" stroke-linecap="round" stroke-linejoin="round"/>
<path d="M36.5 44C40.9183 44 44.5 40.4183 44.5 36C44.5 31.5817 40.9183 28 36.5 28C32.0817 28 28.5 31.5817 28.5 36C28.5 40.4183 32.0817 44 36.5 44Z" stroke="#64177C" stroke-width="3" stroke-linecap="round" stroke-linejoin="round"/>
<path d="M30.5 6V14" stroke="#64177C" stroke-width="3" stroke-linecap="round" stroke-linejoin="round"/>
<path d="M14.5 6V14" stroke="#64177C" stroke-width="2" stroke-linecap="round" stroke-linejoin="round"/>
<path d="M6.5 22H38.5" stroke="#64177C" stroke-width="2" stroke-linecap="round" stroke-linejoin="round"/>
</g>
<defs>
<clipPath id="clip0_1_292">
<rect width="48" height="48" fill="white" transform="translate(0.5)"/>
</clipPath>
</defs>
</svg>
