<svg width="49" height="48" viewBox="0 0 49 48" fill="none" xmlns="http://www.w3.org/2000/svg">
<g clip-path="url(#clip0_1_326)">
<path d="M10.5 22C11.5609 22 12.5783 22.4214 13.3284 23.1716C14.0786 23.9217 14.5 24.9391 14.5 26V30H34.5V26C34.5 24.9391 34.9214 23.9217 35.6716 23.1716C36.4217 22.4214 37.4391 22 38.5 22C39.5609 22 40.5783 22.4214 41.3284 23.1716C42.0786 23.9217 42.5 24.9391 42.5 26V34C42.5 35.0609 42.0786 36.0783 41.3284 36.8284C40.5783 37.5786 39.5609 38 38.5 38H10.5C9.43913 38 8.42172 37.5786 7.67157 36.8284C6.92143 36.0783 6.5 35.0609 6.5 34V26C6.5 24.9391 6.92143 23.9217 7.67157 23.1716C8.42172 22.4214 9.43913 22 10.5 22Z" stroke="#64177C" stroke-width="3" stroke-linecap="round" stroke-linejoin="round"/>
<path d="M10.5 22V12C10.5 10.4087 11.1321 8.88258 12.2574 7.75736C13.3826 6.63214 14.9087 6 16.5 6H32.5C34.0913 6 35.6174 6.63214 36.7426 7.75736C37.8679 8.88258 38.5 10.4087 38.5 12V22" stroke="#64177C" stroke-width="3" stroke-linecap="round" stroke-linejoin="round"/>
<path d="M12.5 38V42" stroke="#64177C" stroke-width="3" stroke-linecap="round" stroke-linejoin="round"/>
<path d="M36.5 38V42" stroke="#64177C" stroke-width="3" stroke-linecap="round" stroke-linejoin="round"/>
</g>
<defs>
<clipPath id="clip0_1_326">
<rect width="48" height="48" fill="white" transform="translate(0.5)"/>
</clipPath>
</defs>
</svg>
