<svg width="17" height="17" viewBox="0 0 17 17" fill="none" xmlns="http://www.w3.org/2000/svg">
<path d="M3.01667 2.70292C4.5263 1.19329 6.35444 0.438477 8.50111 0.438477C10.6463 0.438477 12.4737 1.19329 13.9833 2.70292C15.4944 4.21403 16.25 6.04218 16.25 8.18737C16.25 10.3326 15.4944 12.1607 13.9833 13.6718C12.4737 15.1829 10.6463 15.9385 8.50111 15.9385C6.35444 15.9385 4.5263 15.1829 3.01667 13.6718C1.50556 12.1607 0.75 10.3326 0.75 8.18737C0.75 6.04218 1.50556 4.21403 3.01667 2.70292ZM11.0322 11.7496L12.3122 5.74959C12.3537 5.49922 12.3174 5.317 12.2033 5.20292C12.0893 5.08885 11.9485 5.06292 11.7811 5.12514L4.31222 8.03181C4.04111 8.11477 3.90037 8.21848 3.89 8.34292C3.87963 8.46885 3.98926 8.56292 4.21889 8.62514L6.12556 9.21848L10.5633 6.43848C10.6878 6.35403 10.7811 6.34292 10.8433 6.40514C10.8641 6.42737 10.8537 6.45922 10.8122 6.5007L7.21889 9.74959L7.06333 11.7185C7.20852 11.7185 7.34333 11.6563 7.46778 11.5318L8.40556 10.6251L10.3433 12.0629C10.7181 12.2703 10.9478 12.1659 11.0322 11.7496Z" fill="#FFD900"/>
</svg>
