<svg width="11" height="17" viewBox="0 0 11 17" fill="none" xmlns="http://www.w3.org/2000/svg">
<path d="M9.65556 6.28083L9.21778 9.1875H6.87556V16.1875H3.75111V9.1875H1.21778V6.28083H3.75111V4.09417C3.75111 3.26009 3.90667 2.55194 4.21778 1.96972C4.53037 1.38602 4.97333 0.943056 5.54667 0.640833C6.12 0.338611 6.78148 0.1875 7.53111 0.1875C7.86444 0.1875 8.21852 0.203056 8.59333 0.234167C8.96815 0.265278 9.26 0.301574 9.46889 0.343056L9.78222 0.374167V2.84306H8.53111C7.94741 2.84306 7.52593 2.99417 7.26667 3.29639C7.00593 3.59861 6.87556 3.96824 6.87556 4.40528V6.28083H9.65556Z" fill="#FFD900"/>
</svg>
