<svg width="15" height="15" viewBox="0 0 15 15" fill="none" xmlns="http://www.w3.org/2000/svg">
<path d="M4.95333 4.64083C5.65111 3.94306 6.5 3.59417 7.5 3.59417C8.5 3.59417 9.34889 3.94306 10.0467 4.64083C10.7444 5.33861 11.0933 6.1875 11.0933 7.1875C11.0933 8.1875 10.7444 9.03639 10.0467 9.73417C9.34889 10.4319 8.5 10.7808 7.5 10.7808C6.5 10.7808 5.65111 10.4319 4.95333 9.73417C4.25556 9.03639 3.90667 8.1875 3.90667 7.1875C3.90667 6.1875 4.25556 5.33861 4.95333 4.64083ZM5.84444 8.84306C6.30222 9.30231 6.85407 9.53194 7.5 9.53194C8.14593 9.53194 8.69778 9.30231 9.15556 8.84306C9.61481 8.38528 9.84444 7.83343 9.84444 7.1875C9.84444 6.54157 9.61481 5.98972 9.15556 5.53194C8.69778 5.07269 8.14593 4.84306 7.5 4.84306C6.85407 4.84306 6.30222 5.07269 5.84444 5.53194C5.38519 5.98972 5.15556 6.54157 5.15556 7.1875C5.15556 7.83343 5.38519 8.38528 5.84444 8.84306ZM11.8289 2.85861C11.9844 3.01565 12.0622 3.20898 12.0622 3.43861C12.0622 3.66676 11.9844 3.86454 11.8289 4.03194C11.6719 4.19787 11.4793 4.28083 11.2511 4.28083C11.0215 4.28083 10.823 4.19787 10.6556 4.03194C10.4896 3.86454 10.4067 3.66676 10.4067 3.43861C10.4067 3.20898 10.4896 3.01565 10.6556 2.85861C10.823 2.70306 11.0215 2.62528 11.2511 2.62528C11.4793 2.62528 11.6719 2.70306 11.8289 2.85861ZM14.4689 4.31194C14.4896 4.87491 14.5 5.83343 14.5 7.1875C14.5 8.54157 14.4896 9.50009 14.4689 10.0631C14.4067 11.3342 14.0267 12.3186 13.3289 13.0164C12.6311 13.7142 11.6467 14.0838 10.3756 14.1253C9.81259 14.1668 8.85407 14.1875 7.5 14.1875C6.14593 14.1875 5.18741 14.1668 4.62444 14.1253C3.35333 14.0631 2.37407 13.6882 1.68667 13.0008C1.41704 12.7505 1.19852 12.4586 1.03111 12.1253C0.865185 11.7919 0.745185 11.469 0.671111 11.1564C0.598519 10.8438 0.562222 10.4794 0.562222 10.0631C0.520741 9.50009 0.5 8.54157 0.5 7.1875C0.5 5.83343 0.520741 4.86454 0.562222 4.28083C0.624444 3.03046 0.999259 2.06157 1.68667 1.37417C2.37407 0.666019 3.35333 0.280833 4.62444 0.218611C5.18741 0.19787 6.14593 0.1875 7.5 0.1875C8.85407 0.1875 9.81259 0.19787 10.3756 0.218611C11.6467 0.280833 12.6311 0.660833 13.3289 1.35861C14.0267 2.05639 14.4067 3.04083 14.4689 4.31194ZM12.9689 11.3119C13.0311 11.146 13.083 10.9327 13.1244 10.6719C13.1659 10.4112 13.197 10.0986 13.2178 9.73417C13.24 9.36972 13.2511 9.07269 13.2511 8.84306C13.2511 8.61491 13.2511 8.29194 13.2511 7.87417C13.2511 7.45787 13.2511 7.2238 13.2511 7.17194C13.2511 7.12009 13.2511 6.8912 13.2511 6.48528C13.2511 6.07787 13.2511 5.76009 13.2511 5.53194C13.2511 5.30231 13.24 5.00528 13.2178 4.64083C13.197 4.27639 13.1659 3.9638 13.1244 3.70306C13.083 3.44231 13.0311 3.22898 12.9689 3.06306C12.7185 2.41713 12.2704 1.96898 11.6244 1.71861C11.4585 1.65639 11.2452 1.60454 10.9844 1.56306C10.7237 1.52157 10.4111 1.49046 10.0467 1.46972C9.68222 1.44898 9.39037 1.43861 9.17111 1.43861C8.95333 1.43861 8.63037 1.43861 8.20222 1.43861C7.77556 1.43861 7.54148 1.43861 7.5 1.43861C7.45852 1.43861 7.22963 1.43861 6.81333 1.43861C6.39556 1.43861 6.07259 1.43861 5.84444 1.43861C5.61481 1.43861 5.31778 1.44898 4.95333 1.46972C4.58889 1.49046 4.2763 1.52157 4.01556 1.56306C3.75481 1.60454 3.54148 1.65639 3.37556 1.71861C2.72963 1.96898 2.28148 2.41713 2.03111 3.06306C1.96889 3.22898 1.91704 3.44231 1.87556 3.70306C1.83407 3.9638 1.80296 4.27639 1.78222 4.64083C1.76148 5.00528 1.75111 5.29713 1.75111 5.51639C1.75111 5.73417 1.75111 6.05713 1.75111 6.48528C1.75111 6.91194 1.75111 7.14602 1.75111 7.1875C1.75111 7.27046 1.75111 7.46306 1.75111 7.76528C1.75111 8.0675 1.75111 8.31787 1.75111 8.51639C1.75111 8.71343 1.7563 8.96824 1.76667 9.28083C1.77704 9.59343 1.79259 9.85935 1.81333 10.0786C1.83407 10.2964 1.86519 10.5201 1.90667 10.7497C1.94815 10.9794 1.98963 11.1668 2.03111 11.3119C2.30222 11.9579 2.75037 12.406 3.37556 12.6564C3.54148 12.7186 3.75481 12.7705 4.01556 12.8119C4.2763 12.8534 4.58889 12.8845 4.95333 12.9053C5.31778 12.9275 5.60963 12.9386 5.82889 12.9386C6.04667 12.9386 6.36963 12.9386 6.79778 12.9386C7.22444 12.9386 7.45852 12.9386 7.5 12.9386C7.56222 12.9386 7.7963 12.9386 8.20222 12.9386C8.60963 12.9386 8.92741 12.9386 9.15556 12.9386C9.38519 12.9386 9.68222 12.9275 10.0467 12.9053C10.4111 12.8845 10.7237 12.8534 10.9844 12.8119C11.2452 12.7705 11.4585 12.7186 11.6244 12.6564C12.2704 12.3853 12.7185 11.9371 12.9689 11.3119Z" fill="#FFD900"/>
</svg>
