<svg width="47" height="38" viewBox="0 0 47 38" fill="none" xmlns="http://www.w3.org/2000/svg">
<g clip-path="url(#clip0_1_275)">
<g clip-path="url(#clip1_1_275)">
<path d="M12.0939 25.4416H3.88969L3.13208 15.5998C3.09607 15.1499 2.70217 14.8142 2.25226 14.8502C1.80235 14.8862 1.46664 15.2801 1.50265 15.73L2.31736 26.2562V29.5151C2.31736 29.7311 2.4032 29.9384 2.55596 30.0912C2.70872 30.2439 2.91604 30.3298 3.13208 30.3298H4.65565L3.94677 35.9349C3.91913 36.1513 3.9795 36.3696 4.11444 36.5412C4.24902 36.7129 4.44688 36.8231 4.66365 36.8475H4.76149C5.17575 36.8504 5.52637 36.542 5.5762 36.1306L6.29308 30.3297H8.93295L9.64983 36.1306C9.69966 36.542 10.0503 36.8504 10.4646 36.8475H10.5624C10.7792 36.8231 10.977 36.7129 11.1116 36.5412C11.2465 36.3696 11.3069 36.1513 11.2793 35.9349L10.5704 30.3298H12.094C12.31 30.3298 12.5173 30.2439 12.6701 30.0912C12.8228 29.9384 12.9087 29.7311 12.9087 29.5151V26.2562C12.9087 26.0401 12.8228 25.8328 12.6701 25.6801C12.5173 25.5273 12.3099 25.4416 12.0939 25.4416ZM11.2792 28.7005H3.94677V27.0711H11.2792V28.7005ZM45.4973 15.7302C45.5334 15.2803 45.1976 14.8864 44.7477 14.8504C44.2978 14.8144 43.9039 15.1501 43.8679 15.6L43.1103 25.4418H34.9061C34.4561 25.4418 34.0913 25.8066 34.0913 26.2565V29.5154C34.0913 29.7314 34.1772 29.9387 34.3299 30.0915C34.4827 30.2442 34.69 30.3301 34.9061 30.3301H36.4296L35.7207 35.9352C35.6931 36.1516 35.7535 36.3699 35.8884 36.5415C36.023 36.7132 36.2208 36.8234 36.4376 36.8478H36.5355C36.9497 36.8507 37.3003 36.5423 37.3502 36.1309L38.0671 30.33H40.7069L41.4238 36.1309C41.4736 36.5423 41.8243 36.8507 42.2385 36.8478H42.3364C42.5531 36.8234 42.751 36.7132 42.8856 36.5415C43.0205 36.3699 43.0809 36.1516 43.0532 35.9352L42.3444 30.3301H43.8679C44.084 30.3301 44.2913 30.2442 44.444 30.0915C44.5968 29.9387 44.6826 29.7314 44.6826 29.5154V26.2565L45.4973 15.7302ZM43.0532 28.7005H35.7207V27.0711H43.0532V28.7005ZM33.2766 35.7721C33.3581 35.9878 33.3442 36.2282 33.2388 36.433C33.1329 36.6381 32.9456 36.7887 32.7227 36.8476C32.6361 36.8589 32.5484 36.8589 32.4619 36.8476C32.0967 36.8666 31.7635 36.6403 31.6472 36.2937L26.9869 22.1828H20.0131L15.3528 36.2937C15.2364 36.6403 14.9033 36.8665 14.5381 36.8476C14.4515 36.8589 14.3639 36.8589 14.2773 36.8476C14.0718 36.7789 13.902 36.6312 13.8056 36.437C13.7096 36.2428 13.6943 36.0184 13.7641 35.8129L18.2938 22.1824H9.64974C9.19983 22.1824 8.83502 21.8176 8.83502 21.3677C8.83502 20.9178 9.19983 20.553 9.64974 20.553H37.3501C37.8 20.553 38.1648 20.9178 38.1648 21.3677C38.1648 21.8176 37.8 22.1824 37.3501 22.1824H28.7061L33.2766 35.7721ZM23.5 10.7766C23.716 10.7766 23.9233 10.8625 24.0761 11.0152C24.2289 11.168 24.3147 11.3753 24.3147 11.5913V12.406C24.3147 12.856 23.9499 13.2208 23.5 13.2208C23.0501 13.2208 22.6853 12.856 22.6853 12.406V11.5913C22.6853 11.1414 23.0501 10.7766 23.5 10.7766ZM18.0334 11.3549C17.8792 11.2022 17.7922 10.9937 17.7922 10.7766C17.7922 10.5595 17.8792 10.3511 18.0334 10.1983L18.8481 9.3836C19.1674 9.06389 19.6854 9.06389 20.0047 9.3836C20.3244 9.70294 20.3244 10.2209 20.0047 10.5402L19.19 11.3549C19.0372 11.5091 18.8288 11.5961 18.6117 11.5961C18.3946 11.5961 18.1861 11.5091 18.0334 11.3549ZM28.1526 9.38321L28.9673 10.1979C29.1215 10.3506 29.2081 10.5595 29.2081 10.7766C29.2081 10.9937 29.1212 11.2021 28.967 11.3549C28.8142 11.5091 28.6058 11.596 28.3887 11.596C28.1715 11.596 27.9631 11.5091 27.8104 11.3549L26.9957 10.5402C26.676 10.2208 26.676 9.7029 26.9957 9.38355C27.315 9.06385 27.8332 9.06351 28.1526 9.38321ZM20.2415 5.8883H21.2028C20.9311 6.63755 21.0413 7.4723 21.4988 8.1251C21.9564 8.7776 22.7035 9.16645 23.5003 9.16645C24.2972 9.16645 25.0443 8.77763 25.5018 8.1251C25.9594 7.47223 26.0696 6.63747 25.7979 5.8883H26.7592C27.2091 5.8883 27.5739 5.5235 27.5739 5.07359C27.5739 4.62368 27.2091 4.25887 26.7592 4.25887H24.315V1.81472C24.315 1.36481 23.9502 1 23.5003 1C23.0504 1 22.6856 1.36481 22.6856 1.81472V4.25887H20.2414C19.7915 4.25887 19.4267 4.62368 19.4267 5.07359C19.4267 5.5235 19.7916 5.8883 20.2415 5.8883ZM24.3151 6.70302C24.3151 7.03255 24.1165 7.3297 23.8121 7.45554C23.5076 7.58175 23.1574 7.51228 22.9242 7.27914C22.6911 7.046 22.6216 6.69575 22.7478 6.39131C22.8737 6.08689 23.1708 5.8883 23.5004 5.8883C23.7164 5.8883 23.9237 5.97414 24.0765 6.1269C24.2292 6.27966 24.3151 6.48698 24.3151 6.70302Z" fill="#64177C" stroke="#64177C" stroke-width="0.5"/>
</g>
</g>
<defs>
<clipPath id="clip0_1_275">
<rect width="46" height="38" fill="white" transform="translate(0.5)"/>
</clipPath>
<clipPath id="clip1_1_275">
<rect width="46" height="38" fill="white" transform="translate(0.5)"/>
</clipPath>
</defs>
</svg>
