<svg width="43" height="41" viewBox="0 0 43 41" fill="none" xmlns="http://www.w3.org/2000/svg">
<g clip-path="url(#clip0_1_268)">
<g clip-path="url(#clip1_1_268)">
<path d="M41.5 15.4602V1H21.0304V15.4602H30.7957V19.3101L4.08197 19.3098V5.36606H8.68319C8.13628 6.3472 7.92735 7.48067 8.08846 8.5921C8.24992 9.7036 8.77225 10.7313 9.57522 11.5162L10.0449 11.9859L17.4156 4.61476L16.946 4.14514C15.9626 3.17876 14.6391 2.63775 13.2604 2.63775C11.8821 2.63775 10.5584 3.17909 9.57522 4.14547L9.34042 4.42711H3.14303V19.3098H1.5V39.4038H2.43889V25.3192H39.8569V39.4038H40.7958V19.3098H31.7347V15.4602H41.5ZM10.2322 4.80284C11.0398 4.02538 12.1156 3.58821 13.2369 3.58226C14.2712 3.56588 15.2749 3.93398 16.0537 4.61479L10.0443 10.6713C9.31988 9.85424 8.93537 8.79087 8.97041 7.69973C9.00512 6.60818 9.45673 5.57179 10.2322 4.80284ZM39.8568 20.2489V24.3805H2.43877V20.2489H39.8568ZM21.9694 14.5212V1.93897H40.561V14.5212H21.9694Z" fill="#64177C" stroke="#64177C" stroke-width="1.5"/>
</g>
</g>
<defs>
<clipPath id="clip0_1_268">
<rect width="42" height="41" fill="white" transform="translate(0.5)"/>
</clipPath>
<clipPath id="clip1_1_268">
<rect width="42" height="41" fill="white" transform="translate(0.5)"/>
</clipPath>
</defs>
</svg>
