<svg width="49" height="48" viewBox="0 0 49 48" fill="none" xmlns="http://www.w3.org/2000/svg">
<g clip-path="url(#clip0_1_316)">
<path d="M40.5 34V10C40.5 7.758 38.742 6 36.5 6C34.258 6 32.5 7.758 32.5 10V34L36.5 38L40.5 34Z" stroke="#64177C" stroke-width="3" stroke-linecap="round" stroke-linejoin="round"/>
<path d="M32.5 14H40.5" stroke="#64177C" stroke-width="3" stroke-linecap="round" stroke-linejoin="round"/>
<path d="M36.5 38H10.5C9.43913 38 8.42172 37.5786 7.67157 36.8284C6.92143 36.0783 6.5 35.0609 6.5 34C6.5 32.9391 6.92143 31.9217 7.67157 31.1716C8.42172 30.4214 9.43913 30 10.5 30H18.5C19.5609 30 20.5783 29.5786 21.3284 28.8284C22.0786 28.0783 22.5 27.0609 22.5 26C22.5 24.9391 22.0786 23.9217 21.3284 23.1716C20.5783 22.4214 19.5609 22 18.5 22H12.5" stroke="#64177C" stroke-width="3" stroke-linecap="round" stroke-linejoin="round"/>
</g>
<defs>
<clipPath id="clip0_1_316">
<rect width="48" height="48" fill="white" transform="translate(0.5)"/>
</clipPath>
</defs>
</svg>
